<?xml version="1.0" encoding="UTF-8"?>
<svg version="1.1" viewBox="0 0 2000 2000" width="500" height="500" xmlns="http://www.w3.org/2000/svg">
<path transform="translate(1103,602)" d="m0 0h131l66 4 32 3 97 15 46 8 35 7 59 15 43 13 26 8 29 11 34 13 3 3-8 7-19 13-13 8-17 10h50l17 2 19 5 16 8 13 10 15 14 9 10 10 15 8 15 6 15 1 6v2l1 1v23l-3 22-6 28-11 35-10 26-3 4h-2l1-7 7-27 6-24 4-27 1-22v-4l-27 3-59 9-21 2h-17l-19-19-14-11-13-10-15-10-21-12-17-8-30-12-33-10-35-7-39-4-31-2h-115l-137 5-111 5-10 1-10 19-10 23-11 30-12 37-6 24-6 27h-3l-1-3 7-38 8-32 9-31 11-33 8-21h-29l-52 2-215 12-75 5-70 7h-7l5 5 23 11 16 8 19 12 15 11 13 10 14 11 13 12 2 1v2l4 2 24 24 9 11 13 16 9 11 12 14 10 10 11 9 9 8 11 9 16 12 13 6h155l89-4 115-9 15-1 2-12 6-26 7-20 8-18 10-19 10-14 8-10 11-12 13-13 17-13 16-10 25-11 29-9 15-3 17-2h51l23 3 21 6 16 6 19 9 13 9 16 12 9 8 9 11 13 18 12 23 5 13 6 20 3 20v21l-3 20-4 15-9 22-8 14-8 12-11 13-7 8-13 13-17 13-21 14-21 11-6 1 4-4 21-13 16-13 10-9 8-7 9-9 11-14 9-13 11-21 7-21 3-14 2-15v-14l-2-19-6-25-8-19-10-18-12-16-11-12-8-8-22-14-15-8-20-8-15-5-16-3h-51l-26 5-25 10-25 13-17 13-10 9-9 8-12 16-11 17-9 16-8 19-7 24-4 23v34l6 25 2 8-3 1h-184l-60-1-76-3-52-4-55-5-11-2-9-6-11-9-19-19-7-6v-2l-4-2v-2l-4-2v-2l-4-2-23-23-7-8-10-11-9-11-9-10-9-11-16-16-11-9-16-12-10-7-20-13-12-7-23-11-5-1 15 15 11 14 9 14 12 23 8 24 3 15 1 8v31l-5 25-6 17-8 16-9 14-10 13-9 10-8 9-11 9-13 10-15 10-13 8-17 9-9 2 1-3 19-12 18-14 10-8 13-12 8-7 9-11 10-14 9-16 8-17 6-20 2-12v-32l-5-24-6-18-8-16-7-12-10-13-12-12-17-12-14-9-26-12-22-7-19-4-9-1h-37l-22 3-20 5-15 6-16 8-18 11-13 11-17 17-10 13-15 25-11 23-6 17-3 11-2 13v32l5 21 6 16-5-1-17-8-26-6-38-5-7-2-7-8-7-17v-8l4-5 18-10 1-2 1-10v-15l-3-30-5-28-5-23v-10l4-6 8-7 13-11 16-11 17-10 34-18 28-12 25-9 35-12 41-11 55-12 52-10 44-8 20-6 42-18 46-18 38-14 41-15 98-31 52-15 31-7 47-8 38-5 58-6 42-3zm-7 37-56 3-46 4-35 4-41 6-24 5-31 8-57 18-78 26-78 28-51 19-32 14-12 6-1 3 2 1h21l59-4 81-6 120-8 144-8 40-2 12-1 5-2 10-16 7-11 10-14 12-16 5-5-15 23-13 22-7 14v2h23l171-10 107-6 93-4 165-4 6-2-2-4-11-6-18-7-34-12-30-9-40-10-49-11-63-12-57-8-51-5-59-3z" fill="#FDFDFD"/>
<path transform="translate(1415,908)" d="m0 0h15l17 1 34 16 11 7 14 12 13 13 10 15 8 14 6 16 4 19v32l-6 22-8 16-6 9-7 7-11 8-3 13-4 7-11 13-11 10-19 9-15 4-9 1h-25l-17-3-14-4-16-8-14-8-11-10-8-7-7-7-10-13-7-12-7-16-5-17-3-17v-28l5-23 7-19 9-16 10-13 8-7 9-9 14-9 16-8 16-6 13-3z" fill="#C8C3B2"/>
<path transform="translate(421,905)" d="m0 0 16 1 16 3 15 6 19 9 15 9 11 9 15 15 10 16 7 16 5 19 2 15v25l-4 17-7 16-7 11-11 12-6 5-5 1v8l-5 13-7 11-5 6-13 10-7 5-14 5-13 3h-36l-6-2-10-2-13-5-19-10-17-13-12-11-13-16-10-17-6-15-5-16-1-4v-47l3-8 2-11 9-21 12-17 10-11 7-8 13-10 21-11 17-6 20-4z" fill="#C8C3B2"/>
<path transform="translate(1415,908)" d="m0 0h15l17 1 3 3-7 3-18 4-13 5-6 4-12 9-11 12-8 13-9 21-4 16-1 19 3 19 3 11 9 19 9 13 10 11 14 10 18 10 16 5 16 3h19l13-2h17l-1 9-4 8-12 14-11 10-19 9-15 4-9 1h-25l-17-3-14-4-16-8-14-8-11-10-8-7-7-7-10-13-7-12-7-16-5-17-3-17v-28l5-23 7-19 9-16 10-13 8-7 9-9 14-9 16-8 16-6 13-3z" fill="#FDFDFD"/>
<path transform="translate(421,905)" d="m0 0 16 1 16 3 8 3-5 4-6 2-24 4-18 7-13 9-8 7-9 11-6 11-7 16-4 16-1 18 2 14 6 19 8 16 8 11 14 14 15 10 20 9 14 3 17 3h14l13-2 11-2h10l-1 10-8 16-8 10-13 10-7 5-14 5-13 3h-36l-6-2-10-2-13-5-19-10-17-13-12-11-13-16-10-17-6-15-5-16-1-4v-47l3-8 2-11 9-21 12-17 10-11 7-8 13-10 21-11 17-6 20-4z" fill="#FDFDFD"/>
<path transform="translate(416,1258)" d="m0 0h39l1 10v135l-2 2h-30l-5-3-7-8-12-14-7-9-9-11-24-28-4-4-2 76-2 1h-35l-1-1v-144l1-1h29l13 13 9 11 24 28 9 10 9 11 2 2 1-17 1-46 1-12z" fill="#FDFDFD"/>
<path transform="translate(489,1258)" d="m0 0h27l8 6 13 13 7 8 22 26 9 10 7 9 2 3 2-65 1-9h36l1 1 1 41 1 102-4 2h-30l-5-5-11-13-11-14-11-13-10-13-11-12-4-5-2-1v75l-1 1-36 1-2-2v-145z" fill="#FDFDFD"/>
<path transform="translate(713,1258)" d="m0 0h35l16 5 16 8 10 9 7 7 8 13 6 18 1 6v16l-4 17-8 16-6 8-8 8-9 6-17 8-16 4-9 1h-12l-15-3-15-5-11-6-10-9-5-5-9-14-5-14-1-5v-27l5-17 6-11 8-10 7-7 8-6 19-9zm11 31-10 3-10 8-6 9-4 12-1 5v14l3 12 6 10 8 8 12 5h19l14-7 7-7 6-12 2-11v-13l-3-12-5-8-9-9-11-5-9-2z" fill="#FDFDFD"/>
<path transform="translate(1541,1259)" d="m0 0h78l15 5 14 8 8 7 6 9 5 11 2 7v17l-5 15-7 12-8 9h-2v2h-2l8 15 18 27-3 2-17 1h-21l-8-9-8-13-7-13v-2h-26v35l-5 1h-35l-1-1zm39 30v50h28l10-3 8-9 3-10v-10l-3-8-5-5-6-3-11-2z" fill="#FEFEFE"/>
<path transform="translate(1011,1259)" d="m0 0h94l1 1v30l-3 1h-69v26h65l1 1v26l-5 1h-61v28h73l1 1v30l-1 1-9 1h-103l-1-1v-144l1-1z" fill="#FDFDFD"/>
<path transform="translate(1648,740)" d="m0 0h49l17 2 19 5 16 8 13 10 15 14 9 10 10 15 8 15 6 15 1 6-1 3-4 1h-84l-10-5-11-14-9-10-5-4v-2l-4-2-11-9-20-13-15-9-24-13-11-7-1-4 16-5 21-5z" fill="#C8C3B2"/>
<path transform="translate(1420,1259)" d="m0 0h36l4 5 8 16 36 82 17 39v4l-4 1h-35l-3-3-6-15-3-10h-64l-5 12-7 14-3 2-34-1-1-1 1-7 9-21 18-40 12-28 16-35 6-13zm17 43-3 5-11 27-3 12 1 1h35l-1-8-11-28-5-9z" fill="#FEFEFE"/>
<path transform="translate(1739,1256)" d="m0 0h28l17 4 16 6 6 4-1 7-7 18-1 1-10-1-20-5h-23l-10 5-2 5 2 5 5 4 12 5 32 9 14 7 10 10 5 10 1 5v9l-3 11-4 9-6 8-9 7-12 5-11 3-9 1h-27l-16-4-13-5-11-6-2-2 1-5 8-16 4-6 7 1 18 6 5 1h28l9-4 2-4v-5l-5-4-45-14-14-7-10-9-6-10-1-3v-19l8-16 9-9 10-6 15-5z" fill="#FDFDFD"/>
<path transform="translate(1268,1256)" d="m0 0h35l14 4 16 8 10 7 4 6-1 5-1 2h-2l-1 3-18 13-4-1-6-5-12-6h-27l-10 4-7 6-4 6-4 12-1 6v12l3 12 6 12 6 5 9 4 4 1h19l15-5 8-6 5-1 8 6 8 8 5 9v6l-9 7-16 7-15 4-8 1h-22l-15-3-13-5-11-6-12-11-7-9-8-16-4-16v-21l4-16 7-14 9-11 8-8 14-9 12-5z" fill="#FDFDFD"/>
<path transform="translate(844,1259)" d="m0 0h13l4 4 10 23 18 45 7 19 1 5h2l26-68 11-27 1-1h43l-1 4-8 16-16 40-14 36-12 29-10 20-2 1h-40l-5-8-13-32-22-56-13-31-6-15v-2z" fill="#FDFDFD"/>
<path transform="translate(257,1259)" d="m0 0h24l1 2v143l-2 1h-38l-1-1v-141l3-3z" fill="#FEFEFE"/>
</svg>
